<svg viewBox="0 0 48 48" xmlns="http://www.w3.org/2000/svg">
  <defs>
    <linearGradient id="b" x1="6" y1="6" x2="42" y2="42" gradientUnits="userSpaceOnUse">
      <stop offset="0%" stop-color="#a855f7"/>
      <stop offset="55%" stop-color="#8b5cf6"/>
      <stop offset="100%" stop-color="#d946ef"/>
    </linearGradient>
  </defs>
  <path d="M11 6h26a5 5 0 0 1 5 5v18a5 5 0 0 1-5 5H22.7l-7.3 7a1.5 1.5 0 0 1-2.55-1.07V34H11a5 5 0 0 1-5-5V11a5 5 0 0 1 5-5Z" fill="url(#b)"/>
  <path d="M24 13.2l2.06 5.78a3.4 3.4 0 0 0 2.07 2.07L33.9 23.1l-5.78 2.06a3.4 3.4 0 0 0-2.07 2.07L24 32.99l-2.06-5.77a3.4 3.4 0 0 0-2.07-2.07L14.1 23.1l5.78-2.06a3.4 3.4 0 0 0 2.07-2.07L24 13.2Z" fill="#fff"/>
</svg>
